<?xml version="1.0" encoding="UTF-8" standalone="no"?>
<svg
   xmlns:dc="http://purl.org/dc/elements/1.1/"
   xmlns:cc="http://creativecommons.org/ns#"
   xmlns:rdf="http://www.w3.org/1999/02/22-rdf-syntax-ns#"
   xmlns:svg="http://www.w3.org/2000/svg"
   xmlns="http://www.w3.org/2000/svg"
   xmlns:sodipodi="http://sodipodi.sourceforge.net/DTD/sodipodi-0.dtd"
   xmlns:inkscape="http://www.inkscape.org/namespaces/inkscape"
   viewBox="0 0 116.39 107.96"
   version="1.1"
   id="svg3720"
   sodipodi:docname="logoBanner.verK.svg"
   inkscape:version="0.92.1 r15371">
  <metadata
     id="metadata3724">
    <rdf:RDF>
      <cc:Work
         rdf:about="">
        <dc:format>image/svg+xml</dc:format>
        <dc:type
           rdf:resource="http://purl.org/dc/dcmitype/StillImage" />
        <dc:title>logoBanner</dc:title>
      </cc:Work>
    </rdf:RDF>
  </metadata>
  <sodipodi:namedview
     pagecolor="#ffffff"
     bordercolor="#666666"
     borderopacity="1"
     objecttolerance="10"
     gridtolerance="10"
     guidetolerance="10"
     inkscape:pageopacity="0"
     inkscape:pageshadow="2"
     inkscape:window-width="1366"
     inkscape:window-height="705"
     id="namedview3722"
     showgrid="false"
     showguides="true"
     inkscape:guide-bbox="true"
     inkscape:zoom="4.836879"
     inkscape:cx="51.372418"
     inkscape:cy="53.980001"
     inkscape:window-x="-8"
     inkscape:window-y="-8"
     inkscape:window-maximized="1"
     inkscape:current-layer="svg3720" />
  <defs
     id="defs3682">
    <style
       id="style3680">.cls-1,.cls-2{fill:#fff;}.cls-1{stroke:#fff;stroke-miterlimit:10;}</style>
  </defs>
  <title
     id="title3684">logoBanner</title>
  <path
     class="cls-2"
     d="M 68.441034,81.817739"
     id="path3714"
     style="fill:#ff0000"
     inkscape:connector-curvature="0" />
  <path
     style="fill:#ffffff;fill-opacity:1;stroke:none;stroke-miterlimit:10;stroke-opacity:1"
     d="m 33.025075,0.52048145 c -2.16,-0.02 -14.08,0.2199998 -23.2499965,9.49999955 -9.17000004,9.279999 -9.16992004,20.92 -9.16992004,24 -0.01001,10.81 4.89000004,18.449923 9.74999954,25.919922 4.70999,7.29 10.25,12.570068 21.249995,22.830078 12.349984,11.6 21.703047,20.228359 26.373047,24.568359 0,0 0.135397,0.10206 0.216797,0.10156 0.0814,5e-4 0.216797,-0.10156 0.216797,-0.10156 4.67,-4.34 14.023057,-12.968361 26.373046,-24.568359 11,-10.260005 16.54,-15.540078 21.25,-22.830078 4.86,-7.47 9.76,-15.109922 9.75,-25.919922 0,-3.08 8e-5,-14.720001 -9.16992,-24 C 97.444911,0.74048125 85.524919,0.50048145 83.364919,0.52048145 68.444929,0.64048145 58.194997,12.60056 58.194997,12.60056 c 0,0 -10.249929,-11.96007855 -25.169922,-12.08007855 z"
     id="path3688-8"
     inkscape:connector-curvature="0" />
</svg>
