<svg xmlns="http://www.w3.org/2000/svg" viewBox="0 0 116.39 107.96"><defs><style>.cls-1,.cls-2{fill:#fff;}.cls-1{stroke:#fff;stroke-miterlimit:10;}</style></defs><title>logoBanner</title><g id="Capa_2" data-name="Capa 2"><g id="Capa_2-2" data-name="Capa 2"><path class="cls-1" d="M58.54,107.35c4.67-4.34,14-13,26.35-24.6,11-10.26,16.54-15.54,21.25-22.83C111,52.45,115.9,44.81,115.89,34c0-3.08,0-14.72-9.17-24S85.63.48,83.47.5C68.55.62,59.58,11,58.3,12.58"/><path class="cls-1" d="M57.85,107.35c-4.67-4.34-14-13-26.35-24.6C20.54,72.49,15,67.21,10.25,59.92,5.43,52.45.48,44.81.5,34c0-3.08,0-14.72,9.17-24S30.76.48,32.92.5C47.84.62,56.81,11,58.08,12.58"/><path class="cls-1" d="M58.54,107.35"/><path class="cls-1" d="M58.58,107.31a.7.7,0,0,1-.38.16.68.68,0,0,1-.38-.15"/><path class="cls-2" d="M58.14,105.85c0-1.61,0-6.49,0-8.1"/><path class="cls-2" d="M59.64,105.85c0-2.7,0-5.41,0-8.1,0-1.93-3-1.93-3,0-.06,2.7-.07,5.41,0,8.1,0,1.93,3,1.93,3,0Z"/><path class="cls-2" d="M58,87.79a37,37,0,0,1,.11,9.06A8,8,0,0,1,58,95.7c-.1-1.83-.2-3.65-.15-5.48s.26-3.57.26-5.35c0-2.49-.42-5,0-7.44"/><path class="cls-2" d="M56.51,87.79a43.77,43.77,0,0,1,.11,9.06h3a59.7,59.7,0,0,1-.12-9.31c.17-3.38-.26-6.75.09-10.12.2-1.92-2.8-1.9-3,0-.35,3.36.09,6.74-.09,10.12a59.51,59.51,0,0,0,.12,9.31,1.5,1.5,0,0,0,3,0,43.77,43.77,0,0,0-.11-9.06c-.22-1.9-3.22-1.92-3,0Z"/><path class="cls-2" d="M58.15,75.79q.26-11.71.1-23.42"/><path class="cls-2" d="M59.65,75.79q.25-11.71.1-23.42a1.5,1.5,0,0,0-3,0q.15,11.71-.1,23.42c0,1.93,3,1.93,3,0Z"/><path class="cls-2" d="M58,50.79c-.31-4.51-1.3-9.1-.2-13.49.31-1.24.79-2.45,1-3.72a17.27,17.27,0,0,0,0-3.63"/><path class="cls-2" d="M59.52,50.79c-.32-3.92-1.07-7.89-.46-11.81.5-3.16,1.44-5.76,1.28-9-.09-1.92-3.09-1.93-3,0,.16,3.36-1.06,6.27-1.4,9.55-.4,3.76.27,7.53.58,11.28.16,1.91,3.16,1.93,3,0Z"/><path class="cls-2" d="M58.4,30.27a6.44,6.44,0,0,1-.66-3.14c-.05-2,0-4,.14-5.94l.27-5.45a17.65,17.65,0,0,1,.16-1.88"/><path class="cls-2" d="M59.84,29.87c-1.09-2.62-.6-5.88-.47-8.68.12-2.44.16-4.9.43-7.32.21-1.92-2.79-1.9-3,0-.31,2.81-.36,5.68-.48,8.51s-.45,5.69.63,8.29c.73,1.76,3.63,1,2.89-.8Z"/><path class="cls-2" d="M53.55,80.37"/><path class="cls-2" d="M53.55,81.87a1.5,1.5,0,0,0,0-3,1.5,1.5,0,0,0,0,3Z"/></g></g></svg>